<svg xmlns="http://www.w3.org/2000/svg" viewBox="0 0 1600 1000" preserveAspectRatio="xMidYMid slice">
  <title>Arabic: old desert town at twilight</title>
  <defs>
    <linearGradient id="sky" x1="0" y1="0" x2="0" y2="1">
      <stop offset="0" stop-color="#0d1b3d"/>
      <stop offset="0.5" stop-color="#3b2a6b"/>
      <stop offset="0.85" stop-color="#d98b5f"/>
    </linearGradient>
    <pattern id="windows" width="60" height="70" patternUnits="userSpaceOnUse">
      <rect width="60" height="70" fill="#d7a66c"/>
      <path d="M20 60 V36 C20 26 26 22 30 18 C34 22 40 26 40 36 V60 Z" fill="#ffcf6b"/>
    </pattern>
    <symbol id="palm" viewBox="-80 -200 160 210" width="160" height="210">
      <path d="M-4 0 C-6 -70 4 -130 0 -180 L8 -180 C12 -130 4 -70 6 0 Z" fill="#3b2418"/>
      <g fill="#2f4a2a">
        <path d="M4 -180 C-40 -200 -70 -180 -80 -150 C-50 -170 -20 -172 4 -176 Z"/>
        <path d="M4 -180 C48 -200 76 -180 80 -150 C52 -170 24 -172 4 -176 Z"/>
        <path d="M4 -182 C-20 -210 -50 -205 -66 -190 C-40 -195 -16 -192 4 -180 Z"/>
        <path d="M4 -182 C28 -210 58 -205 72 -190 C46 -195 22 -192 4 -180 Z"/>
        <path d="M4 -180 C-24 -170 -44 -140 -46 -110 C-30 -140 -12 -160 4 -176 Z"/>
        <path d="M4 -180 C32 -170 52 -140 54 -110 C38 -140 20 -160 4 -176 Z"/>
      </g>
    </symbol>
  </defs>

  <rect width="1600" height="1000" fill="url(#sky)"/>
  <g fill="#fff7dd">
    <circle cx="120" cy="90" r="2.5"/><circle cx="260" cy="160" r="2"/><circle cx="420" cy="70" r="2.5"/>
    <circle cx="560" cy="140" r="2"/><circle cx="700" cy="60" r="2"/><circle cx="880" cy="120" r="2.5"/>
    <circle cx="1020" cy="70" r="2"/><circle cx="1480" cy="110" r="2.5"/><circle cx="1360" cy="200" r="2"/>
    <circle cx="80" cy="260" r="2"/><circle cx="980" cy="230" r="2"/><circle cx="640" cy="250" r="2"/>
  </g>
  <path d="M1240 120 A80 80 0 1 0 1300 260 A64 64 0 1 1 1240 120 Z" fill="#ffe6a3"/>

  <path d="M0 680 C200 600 380 640 560 620 C760 600 900 560 1100 600 C1300 640 1450 600 1600 620 V1000 H0 Z" fill="#c7834a"/>

  <g>
    <rect x="300" y="520" width="240" height="180" fill="url(#windows)"/>
    <rect x="290" y="508" width="260" height="14" fill="#b8854f"/>
    <rect x="1060" y="540" width="260" height="160" fill="url(#windows)"/>
    <rect x="1050" y="528" width="280" height="14" fill="#b8854f"/>

    <rect x="640" y="460" width="320" height="240" fill="#e2b77c"/>
    <path d="M660 470 C660 330 760 290 800 240 C840 290 940 330 940 470 Z" fill="#d9a441"/>
    <path d="M700 470 C700 370 770 330 800 300 C830 330 900 370 900 470 Z" fill="#e8bb57" opacity="0.6"/>
    <path d="M800 240 V200" stroke="#ffe6a3" stroke-width="6"/>
    <path d="M790 196 A12 12 0 1 0 806 210 A9 9 0 1 1 790 196 Z" fill="#ffe6a3"/>
    <path d="M760 700 V600 C760 572 784 556 800 546 C816 556 840 572 840 600 V700 Z" fill="#4a2a18"/>

    <rect x="990" y="250" width="44" height="450" fill="#e2b77c"/>
    <rect x="978" y="360" width="68" height="18" fill="#b8854f"/>
    <rect x="984" y="250" width="56" height="14" fill="#b8854f"/>
    <path d="M990 250 C990 222 1012 212 1012 192 C1012 212 1034 222 1034 250 Z" fill="#d9a441"/>
    <rect x="1004" y="290" width="16" height="40" rx="8" fill="#ffcf6b"/>
  </g>

  <path d="M0 760 C220 700 420 740 640 720 C880 700 1080 740 1300 720 C1440 708 1520 720 1600 730 V1000 H0 Z" fill="#a8653a"/>
  <path d="M0 860 C260 820 520 860 800 840 C1100 820 1340 860 1600 840 V1000 H0 Z" fill="#8c512d"/>

  <use href="#palm" x="80" y="560"/>
  <use href="#palm" x="200" y="600" width="130" height="170"/>
  <use href="#palm" x="1340" y="570"/>
  <use href="#palm" x="1470" y="620" width="120" height="160"/>
</svg>
